<svg width="446" height="412" viewBox="0 0 446 412" fill="none" xmlns="http://www.w3.org/2000/svg">
<path d="M291.08 179.897C290.566 183.689 289.95 187.443 289.231 191.158C289.153 191.589 289.066 192.014 288.979 192.445H278.981C278.129 192.447 277.313 192.922 276.71 193.767C276.108 194.612 275.77 195.758 275.769 196.952V236.949C275.466 237.741 275.158 238.526 274.851 239.312C273.263 243.368 271.611 247.379 269.923 251.339C242.389 315.696 203.987 369.551 158.107 408.15L160.823 399.548C159.827 399.451 158.827 399.355 157.832 399.258C136.151 397.178 114.397 394.874 93.226 388.036C71.0775 380.883 49.4109 368.475 32.0528 347.904C14.6899 327.327 1.96162 297.941 0.195023 266.148C-0.394044 255.221 0.393492 244.234 2.52151 233.691C6.59131 213.397 15.4839 195.137 28.3132 184.333C48.4657 167.367 74.753 170.825 95.9974 184.938C117.237 199.045 134.527 222.398 151.408 245.345C134.364 204.333 110.633 169.576 82.1633 143.925C72.7294 135.451 62.7175 127.905 54.6969 116.928C46.6807 105.956 40.7661 90.5747 42.1841 74.987C43.7946 57.3067 54.1141 43.8888 64.4518 33.542C68.5814 29.4085 72.8441 25.4874 77.2399 21.8818C89.6424 11.6832 103.059 3.98911 117.228 1.13683C136.422 -2.73274 157.153 3.13922 171.868 20.8581C188.446 40.8241 195.246 73.0232 194.599 103.825C204.813 82.9901 220.565 67.0418 238.354 66.3658C256.823 65.6704 274.378 82.0436 283.629 104.488C292.875 126.927 294.535 154.432 291.08 179.897Z" fill="#E6E6E6"/>
<path d="M174.231 266.428C185.048 265.091 195.041 263.529 205.523 259.367C215.683 255.333 225.46 248.579 232.693 237.552C240.473 225.691 244.672 210.288 247.635 194.954C249.287 186.405 250.644 177.736 251.925 169.065C253.315 159.656 254.55 150.205 255.629 140.713C257.779 121.819 259.313 102.814 260.233 83.6977C260.344 81.3772 260.446 79.056 260.539 76.7339C260.596 75.3014 259.008 75.306 258.951 76.7339C258.196 95.5773 256.837 114.347 254.874 133.044C252.938 151.413 250.46 169.703 247.316 187.743C244.653 203.025 241.204 218.547 234.374 231.269C227.968 243.199 218.717 250.995 208.728 255.656C198.563 260.4 187.846 262.293 177.224 263.701C175.921 263.874 175.535 264.039 174.231 264.2C173.221 264.325 173.212 266.554 174.231 266.428L174.231 266.428Z" fill="white"/>
<path d="M3.43748 235.334C17.0852 236.397 30.5942 239.737 43.6786 245.285C56.7687 250.821 69.3478 258.504 81.1554 268.175C92.5646 277.527 103.156 288.717 112.715 301.517C121.992 313.948 130.26 327.781 137.367 342.764C144.508 357.785 150.425 373.881 155.008 390.752C155.567 392.817 156.106 394.893 156.623 396.979C156.958 398.324 158.492 397.745 158.154 396.387C153.866 379.159 148.213 362.662 141.302 347.204C134.391 331.746 126.281 317.409 117.12 304.458C107.812 291.306 97.4533 279.705 86.2489 269.888C62.7234 249.325 36.0573 236.885 8.44049 233.59C6.77459 233.394 5.10692 233.233 3.4375 233.107C2.41657 233.028 2.4197 235.256 3.4375 235.334L3.43748 235.334Z" fill="white"/>
<path d="M77.6683 24.4933C86.3945 28.3875 94.6657 34.059 102.217 41.3264C109.934 48.8029 116.971 57.5727 123.174 67.4412C129.71 77.8225 135.521 89.0602 140.527 101C145.837 113.606 150.45 126.765 154.325 140.362C158.315 154.321 161.671 168.621 164.373 183.175C167.119 197.902 169.264 212.837 170.798 227.907C172.323 242.817 173.247 257.836 173.563 272.893C173.882 287.29 173.579 301.701 172.655 316.047C171.81 329.431 170.267 342.709 168.038 355.777C166.058 367.578 163.268 379.084 159.707 390.13C158.882 392.638 158.007 395.11 157.082 397.548C156.601 398.813 157.971 399.94 158.453 398.672C162.388 388.121 165.53 377.023 167.829 365.559C170.407 352.798 172.277 339.774 173.42 326.607C174.687 312.321 175.304 297.936 175.267 283.54C175.244 268.415 174.603 253.305 173.346 238.284C172.088 223.076 170.22 207.979 167.752 193.065C165.29 178.127 162.167 163.419 158.401 149.026C154.771 135.093 150.424 121.548 145.396 108.498C140.607 96.0457 135.026 84.2256 128.721 73.1823C122.733 62.6674 115.897 53.1616 108.35 44.8551C101.072 36.8694 93.0302 30.3601 84.4601 25.5185C82.3658 24.3488 80.2426 23.291 78.0904 22.3451C77.1135 21.9138 76.6955 24.0638 77.6683 24.4933H77.6683Z" fill="white"/>
<path d="M171.84 412C234.56 412 285.404 409.117 285.404 405.561C285.404 402.006 234.56 399.123 171.84 399.123C109.12 399.123 58.2754 402.006 58.2754 405.561C58.2754 409.117 109.12 412 171.84 412Z" fill="#E6E6E6"/>
<path d="M272.175 203.899C272.119 204.247 272.082 204.6 272.065 204.955L252.354 220.911L247.563 217.041L242.456 226.424L252.705 236.674L275.192 211.781C276.109 212.257 277.108 212.33 278.056 211.991C279.003 211.651 279.854 210.915 280.496 209.879C281.138 208.844 281.541 207.559 281.65 206.196C281.758 204.832 281.569 203.454 281.106 202.245C280.643 201.036 279.929 200.054 279.059 199.428C278.188 198.803 277.203 198.564 276.233 198.743C275.264 198.923 274.356 199.512 273.631 200.433C272.906 201.354 272.398 202.563 272.175 203.899Z" fill="#FFB8B8"/>
<path d="M227.285 213.689L242.805 229.21L249.746 216.998L234.659 200.011C234.01 199.281 233.262 198.744 232.46 198.433C231.657 198.122 230.818 198.045 229.994 198.205C229.17 198.365 228.377 198.76 227.666 199.365C226.954 199.97 226.338 200.773 225.855 201.723C224.914 203.576 224.536 205.878 224.804 208.122C225.072 210.366 225.964 212.368 227.285 213.689Z" fill="#6C63FF"/>
<path d="M195.248 390.792L200.689 392.793L208.779 364.293L200.748 361.34L195.248 390.792Z" fill="#FFB8B8"/>
<path d="M209.86 403.742L192.758 397.454L194.489 388.182L204.984 392.04C206.736 392.685 208.234 394.28 209.149 396.474C210.063 398.669 210.319 401.283 209.86 403.742Z" fill="#2F2E41"/>
<path d="M243.62 396.229L249.158 394.841L247.978 364.208L239.805 366.257L243.62 396.229Z" fill="#FFB8B8"/>
<path d="M260.757 399.38L243.353 403.742L242.151 394.306L252.831 391.629C253.714 391.408 254.62 391.433 255.496 391.703C256.372 391.972 257.202 392.482 257.938 393.201C258.674 393.921 259.302 394.837 259.785 395.897C260.269 396.957 260.599 398.141 260.757 399.38Z" fill="#2F2E41"/>
<path d="M232.716 170.949C234.081 171.415 235.191 173.366 235.858 175.626C236.473 178.001 236.889 180.467 237.098 182.976C237.622 187.648 238.125 192.706 237.042 197.033C235.772 202.105 232.388 204.762 229.453 203.513C226.518 202.265 224.183 197.579 223.386 192.185C222.66 186.735 223.128 181.104 224.728 176.035C225.562 173.371 226.711 170.914 228.238 169.712C228.987 169.076 229.88 168.862 230.737 169.113C231.594 169.363 232.352 170.06 232.858 171.063" fill="#2F2E41"/>
<path d="M240.437 255.543L250.98 388.045L242.273 392.684L226.213 303.832L203.854 385.073L194.323 385.816C194.323 385.816 207.4 259.406 217.092 256.534L240.437 255.543Z" fill="#2F2E41"/>
<path d="M231.582 187.859C237.806 187.859 242.851 180.779 242.851 172.045C242.851 163.311 237.806 156.231 231.582 156.231C225.358 156.231 220.312 163.311 220.312 172.045C220.312 180.779 225.358 187.859 231.582 187.859Z" fill="#FFB8B8"/>
<path d="M236.419 194.493L224.24 192.264C224.24 192.264 216.297 205.638 216.827 228.671C217.356 251.704 215.503 258.762 215.503 258.762L240.896 259.406C237.225 252.324 252.579 211.647 236.419 194.493Z" fill="#6C63FF"/>
<path d="M242.961 262.626C242.707 262.628 242.454 262.659 242.203 262.717L226.623 239.444L228.211 232.014L220.534 227.185L215.768 243.531L238.183 268.551C238.063 269.913 238.241 271.294 238.693 272.51C239.146 273.727 239.851 274.721 240.716 275.361C241.582 276.001 242.565 276.256 243.536 276.093C244.507 275.93 245.419 275.356 246.152 274.447C246.885 273.538 247.403 272.338 247.638 271.006C247.873 269.674 247.813 268.273 247.466 266.989C247.12 265.706 246.503 264.601 245.698 263.822C244.894 263.042 243.939 262.625 242.961 262.626Z" fill="#FFB8B8"/>
<path d="M225.896 203.548L218.68 228.299L228.741 234.986L237.072 210.491C237.431 209.437 237.632 208.292 237.664 207.125C237.696 205.958 237.558 204.794 237.258 203.705C236.958 202.615 236.503 201.624 235.92 200.79C235.338 199.956 234.64 199.298 233.87 198.856C233.127 198.429 232.331 198.212 231.528 198.217C230.725 198.222 229.931 198.449 229.191 198.884C228.45 199.32 227.778 199.956 227.213 200.756C226.648 201.556 226.2 202.505 225.896 203.548Z" fill="#6C63FF"/>
<path d="M228.634 186.422C230.4 184.992 230.588 181.544 230.348 178.703C230.108 175.863 229.707 172.696 230.897 170.373C232.317 167.601 235.171 167.546 237.603 167.455C240.035 167.365 242.997 166.366 243.627 163.068C244.044 160.889 243.153 158.551 241.874 157.183C240.596 155.815 238.996 155.211 237.442 154.636C233.964 153.35 230.373 152.054 226.812 152.76C223.285 153.46 220.096 156.081 217.935 160.055C215.774 164.028 214.816 169.036 215.266 173.995C215.843 180.337 216.679 183.107 216.13 185.904C215.108 191.113 210.701 194.459 210.613 199.86C210.545 204.085 213.204 207.344 215.799 209.49C217.857 211.191 220.079 212.635 222.451 213.034C224.823 213.432 227.376 212.669 229.143 210.413C231.422 207.504 231.986 202.643 231.332 198.418C230.679 194.193 229.003 190.441 227.344 186.797" fill="#2F2E41"/>
<path d="M441.87 191.158H278.98C277.885 191.16 276.836 191.771 276.062 192.858C275.288 193.944 274.852 195.416 274.851 196.952V343.751C274.852 345.287 275.288 346.76 276.062 347.846C276.836 348.932 277.885 349.544 278.98 349.546H441.87C442.965 349.544 444.015 348.932 444.789 347.846C445.563 346.76 445.998 345.287 446 343.751V196.952C445.998 195.416 445.563 193.944 444.789 192.858C444.015 191.771 442.965 191.16 441.87 191.158ZM445.082 343.751C445.081 344.946 444.743 346.092 444.141 346.937C443.538 347.782 442.722 348.257 441.87 348.258H278.98C278.129 348.257 277.312 347.782 276.71 346.937C276.108 346.092 275.769 344.946 275.768 343.751V196.952C275.769 195.757 276.108 194.612 276.71 193.767C277.312 192.922 278.129 192.447 278.98 192.445H441.87C442.722 192.447 443.538 192.922 444.141 193.767C444.743 194.612 445.081 195.757 445.082 196.952V343.751Z" fill="#3F3D56"/>
<path d="M313.749 264.232H288.054C287.02 264.231 286.029 263.653 285.298 262.628C284.566 261.602 284.155 260.211 284.154 258.76V222.704C284.155 221.253 284.566 219.862 285.298 218.836C286.029 217.81 287.02 217.233 288.054 217.231H313.749C314.783 217.233 315.775 217.81 316.506 218.836C317.237 219.862 317.648 221.253 317.649 222.704V258.76C317.648 260.211 317.237 261.602 316.506 262.628C315.775 263.653 314.783 264.231 313.749 264.232Z" fill="#6C63FF"/>
<path d="M433.387 302.548H287.474C286.683 302.548 285.924 302.107 285.365 301.322C284.806 300.537 284.491 299.473 284.491 298.363C284.491 297.253 284.806 296.188 285.365 295.403C285.924 294.619 286.683 294.178 287.474 294.178H433.387C434.178 294.178 434.937 294.619 435.496 295.403C436.055 296.188 436.369 297.253 436.369 298.363C436.369 299.473 436.055 300.537 435.496 301.322C434.937 302.107 434.178 302.548 433.387 302.548Z" fill="#CCCCCC"/>
<path d="M433.485 282.266H287.572C286.781 282.266 286.022 281.825 285.463 281.041C284.904 280.256 284.589 279.191 284.589 278.081C284.589 276.971 284.904 275.907 285.463 275.122C286.022 274.337 286.781 273.896 287.572 273.896H433.485C434.276 273.896 435.034 274.337 435.594 275.122C436.153 275.907 436.467 276.971 436.467 278.081C436.467 279.191 436.153 280.256 435.594 281.041C435.034 281.825 434.276 282.266 433.485 282.266Z" fill="#CCCCCC"/>
<path d="M361.446 254.574H339.88C339.089 254.574 338.331 254.133 337.771 253.349C337.212 252.564 336.898 251.499 336.898 250.389C336.898 249.279 337.212 248.215 337.771 247.43C338.331 246.645 339.089 246.204 339.88 246.204H361.446C362.237 246.204 362.996 246.645 363.555 247.43C364.114 248.215 364.428 249.279 364.428 250.389C364.428 251.499 364.114 252.564 363.555 253.349C362.996 254.133 362.237 254.574 361.446 254.574Z" fill="#CCCCCC"/>
<path d="M433.485 233.977H339.88C339.089 233.977 338.331 233.536 337.771 232.751C337.212 231.967 336.898 230.902 336.898 229.792C336.898 228.682 337.212 227.618 337.771 226.833C338.331 226.048 339.089 225.607 339.88 225.607H433.485C434.276 225.607 435.034 226.048 435.594 226.833C436.153 227.618 436.467 228.682 436.467 229.792C436.467 230.902 436.153 231.967 435.594 232.751C435.034 233.536 434.276 233.977 433.485 233.977Z" fill="#CCCCCC"/>
<path d="M357.775 323.151H287.474C286.683 323.151 285.924 322.71 285.365 321.925C284.806 321.14 284.491 320.076 284.491 318.966C284.491 317.856 284.806 316.792 285.365 316.007C285.924 315.222 286.683 314.781 287.474 314.781H357.775C358.566 314.781 359.325 315.222 359.884 316.007C360.443 316.792 360.758 317.856 360.758 318.966C360.758 320.076 360.443 321.14 359.884 321.925C359.325 322.71 358.566 323.151 357.775 323.151Z" fill="#CCCCCC"/>
</svg>
